<?xml version="1.0" standalone="no"?>
<!DOCTYPE svg PUBLIC "-//W3C//DTD SVG 20010904//EN"
 "http://www.w3.org/TR/2001/REC-SVG-20010904/DTD/svg10.dtd">
<svg version="1.0" xmlns="http://www.w3.org/2000/svg"
 width="929.000000pt" height="900.000000pt" viewBox="0 0 929.000000 900.000000"
 preserveAspectRatio="xMidYMid meet">

<g transform="translate(0.000000,900.000000) scale(0.100000,-0.100000)"
fill="#000000" stroke="none">
<path d="M1155 8782 c-48 -30 -131 -128 -171 -205 -36 -68 -38 -78 -44 -190
-5 -117 -5 -118 -36 -142 -62 -49 -82 -160 -43 -245 11 -24 19 -56 18 -70 -3
-52 2 -70 25 -96 l23 -28 -1 61 c-1 40 -7 68 -18 80 -41 47 -26 190 27 247 21
23 27 42 34 114 14 128 66 247 139 313 30 27 59 48 66 47 6 -1 22 4 35 11 14
8 41 11 66 9 l42 -5 -29 43 c-50 75 -81 87 -133 56z"/>
<path d="M7583 8200 c-58 -29 -199 -147 -189 -158 3 -2 33 21 67 51 118 105
236 140 314 93 65 -38 171 -225 229 -401 35 -109 75 -309 86 -430 l8 -100 -3
120 c-3 113 -24 267 -45 328 -5 15 -7 27 -5 27 10 0 -71 212 -108 284 -106
204 -209 258 -354 186z"/>
<path d="M7170 8130 c8 -5 24 -10 34 -10 26 0 18 6 -19 14 -22 5 -26 4 -15 -4z"/>
<path d="M7075 8111 c-99 -46 -223 -182 -297 -327 -182 -352 -278 -789 -247
-1120 21 -233 89 -390 230 -538 85 -90 119 -136 100 -136 -16 0 -125 67 -182
112 -70 54 -107 95 -125 136 -13 30 -13 37 0 57 14 21 13 24 -6 41 -34 31 -91
121 -178 284 -99 185 -180 311 -214 334 -41 26 -41 18 1 -27 22 -24 70 -101
108 -173 132 -253 179 -327 249 -401 22 -24 37 -43 32 -43 -23 0 -113 79 -272
240 -181 184 -249 242 -294 254 -23 6 -23 6 -6 -5 47 -29 136 -116 279 -272
76 -83 187 -177 245 -206 34 -17 42 -26 37 -41 -20 -63 93 -175 316 -313 23
-14 27 -25 33 -88 14 -134 68 -258 127 -289 39 -21 91 -15 116 15 13 14 23 32
23 39 0 7 -16 45 -35 83 -34 69 -107 154 -176 206 -23 17 -41 42 -50 69 -9 30
-42 73 -104 139 -96 102 -141 173 -181 292 -78 229 -72 536 16 884 55 216 152
454 233 573 36 52 126 145 179 184 21 16 57 34 80 41 24 8 34 14 23 14 -11 0
-38 -8 -60 -18z m-43 -2295 c74 -93 105 -175 76 -204 -17 -17 -69 -15 -96 4
-46 32 -101 185 -102 282 l0 34 41 -33 c23 -18 59 -55 81 -83z"/>
<path d="M7231 8116 c2 -2 15 -9 29 -15 24 -11 24 -11 6 3 -16 13 -49 24 -35
12z"/>
<path d="M7324 8035 c110 -160 262 -594 280 -800 3 -38 8 -86 11 -105 9 -56
-11 -178 -37 -226 -13 -24 -59 -86 -102 -138 -74 -89 -83 -96 -135 -111 -276
-76 -459 -204 -421 -295 18 -43 60 -56 114 -36 73 28 133 74 256 196 l118 117
68 6 c88 8 188 -7 239 -38 90 -52 176 -179 210 -310 53 -199 15 -479 -84 -633
-52 -80 -91 -103 -178 -103 -165 -1 -286 59 -523 260 l-85 72 77 -74 c195
-189 364 -277 531 -277 81 0 131 22 175 77 148 188 182 574 71 808 -85 181
-219 264 -406 253 -59 -4 -77 2 -52 17 18 12 130 159 150 197 61 120 40 374
-56 667 -77 235 -166 427 -231 498 -16 18 -12 9 10 -22z m-3 -1443 c-21 -30
-134 -133 -209 -191 -88 -68 -162 -73 -162 -11 0 55 115 132 298 200 96 36 98
36 73 2z"/>
<path d="M1520 7959 c-77 -55 -287 -264 -349 -346 -28 -37 -61 -89 -74 -115
-16 -36 -31 -51 -57 -62 -53 -21 -147 -31 -164 -16 -12 9 -20 8 -41 -6 -21
-14 -41 -16 -107 -11 -77 5 -82 7 -119 43 -22 21 -38 43 -35 49 2 7 -22 26
-54 43 -67 37 -133 105 -161 165 -21 47 -26 158 -8 204 5 15 22 40 37 56 20
21 22 27 10 27 -52 0 -119 -58 -151 -129 -52 -119 49 -298 192 -337 83 -22
101 -32 101 -51 0 -32 37 -79 75 -97 31 -15 52 -17 119 -12 82 7 91 7 182 5
36 0 67 7 104 25 29 14 56 23 59 20 3 -3 4 -40 2 -82 -6 -149 -6 -150 19 -177
13 -14 29 -25 35 -25 8 0 14 -21 17 -51 7 -65 39 -100 100 -108 l43 -6 7 -55
c10 -68 56 -165 101 -211 38 -39 113 -69 173 -69 57 0 105 34 124 87 18 53 10
61 -29 32 -32 -23 -118 -37 -164 -25 -55 14 -147 138 -177 243 -9 28 -17 40
-26 36 -33 -13 -124 86 -124 135 0 13 -12 33 -26 45 -28 25 -43 80 -36 138 3
27 11 40 33 53 33 19 45 32 139 135 147 163 217 238 259 279 24 23 41 42 37
42 -4 0 6 19 22 43 52 75 54 82 31 106 -28 30 -56 26 -119 -20z"/>
<path d="M8797 7964 c-4 -4 -7 -35 -7 -68 0 -110 -64 -163 -224 -187 -42 -6
-76 -15 -76 -19 0 -8 74 -20 129 -20 49 0 111 -38 132 -80 14 -28 25 -94 29
-162 0 -5 4 -8 9 -8 5 0 14 23 20 50 6 28 17 65 25 84 23 56 105 104 204 121
54 9 50 27 -8 37 -109 19 -191 90 -206 177 -9 56 -19 83 -27 75z"/>
<path d="M1800 7880 c-24 -8 -24 -8 5 -9 17 0 37 4 45 9 12 8 11 10 -5 9 -11
-1 -31 -5 -45 -9z"/>
<path d="M2356 7846 c9 -24 -16 -128 -42 -173 -32 -55 -121 -134 -192 -168
-75 -37 -219 -85 -254 -85 -17 0 -28 -5 -28 -13 0 -42 -104 -82 -169 -65 -30
8 -45 7 -56 -2 -10 -8 -34 -10 -78 -5 -51 6 -64 4 -64 -7 0 -7 7 -14 16 -15 9
-1 34 -6 56 -13 22 -6 47 -11 55 -10 8 1 58 2 110 3 106 2 134 14 170 72 18
30 24 32 88 38 123 10 236 64 355 170 137 121 167 226 77 272 -36 19 -51 19
-44 1z"/>
<path d="M970 7760 c0 -5 5 -10 11 -10 5 0 7 5 4 10 -3 6 -8 10 -11 10 -2 0
-4 -4 -4 -10z"/>
<path d="M8102 7220 c0 -14 2 -19 5 -12 2 6 2 18 0 25 -3 6 -5 1 -5 -13z"/>
<path d="M4723 7215 c-13 -9 -23 -22 -23 -29 0 -23 28 -39 55 -32 22 6 26 11
23 39 -3 37 -23 45 -55 22z m37 -39 c-7 -9 -17 -16 -22 -16 -16 0 -21 30 -7
46 11 13 14 13 27 0 13 -12 13 -18 2 -30z"/>
<path d="M7710 7210 c0 -5 5 -10 10 -10 6 0 10 5 10 10 0 6 -4 10 -10 10 -5 0
-10 -4 -10 -10z"/>
<path d="M8090 7146 c0 -49 -41 -185 -73 -238 l-26 -45 -52 25 c-97 48 -198
29 -224 -42 -14 -40 27 -77 94 -84 58 -5 103 9 143 46 l27 25 33 -29 c93 -80
202 -238 249 -357 102 -264 63 -597 -90 -760 -53 -57 -72 -69 -126 -78 l-40
-6 41 -2 c150 -4 304 266 304 536 0 241 -90 452 -273 640 l-79 82 21 27 c37
48 102 294 77 294 -3 0 -6 -15 -6 -34z m-170 -274 c54 -26 50 -46 -16 -78 -53
-26 -59 -27 -102 -15 -26 7 -52 17 -59 23 -21 17 -15 45 13 67 34 27 115 28
164 3z"/>
<path d="M4637 7143 c-2 -4 -10 -55 -16 -113 -6 -58 -18 -168 -27 -245 -17
-159 -27 -204 -57 -258 -27 -48 -53 -54 -108 -26 -73 36 -207 136 -277 206 -7
7 -16 13 -19 13 -3 0 19 -27 49 -60 96 -109 147 -172 163 -207 15 -31 15 -36
1 -58 -9 -14 -33 -33 -54 -44 -46 -23 -195 -58 -304 -72 -120 -14 -210 -30
-204 -36 3 -3 69 -13 148 -23 197 -25 300 -45 355 -70 92 -40 103 -69 50 -126
l-32 -36 -150 -9 c-83 -5 -316 -13 -520 -17 -365 -8 -371 -9 -445 -35 -89 -32
-189 -98 -257 -170 -68 -72 -139 -176 -147 -214 -14 -62 43 -123 114 -123 19
0 52 15 89 40 73 50 122 72 235 104 98 29 130 32 124 14 -3 -7 -38 -20 -79
-29 -166 -35 -291 -121 -410 -282 -72 -97 -88 -141 -65 -185 33 -64 117 -81
177 -36 19 14 43 30 54 36 18 11 19 10 3 -14 -42 -64 -128 -227 -138 -263 -16
-54 4 -102 56 -141 22 -15 43 -31 47 -35 5 -4 -12 -43 -37 -87 -84 -144 -91
-205 -33 -260 49 -46 114 -65 226 -65 174 -2 234 38 277 182 37 124 75 228 88
247 11 15 27 15 169 4 214 -16 294 -1 346 66 50 63 63 184 26 240 l-16 25
-185 -7 c-200 -7 -199 -8 -169 46 13 24 16 25 127 25 96 1 119 4 155 23 42 22
78 59 88 92 4 12 20 20 52 25 25 4 51 9 58 11 9 4 14 -21 19 -88 3 -51 11
-110 16 -132 6 -27 4 -62 -7 -115 -26 -134 -2 -314 58 -436 76 -154 216 -230
377 -205 35 6 66 9 68 7 2 -1 -5 -17 -15 -33 l-19 -31 -145 -6 c-204 -8 -247
-31 -247 -128 0 -85 69 -139 176 -139 30 0 54 -5 54 -10 0 -6 -14 -37 -30 -70
-28 -56 -33 -60 -65 -60 -43 0 -95 -20 -115 -45 -9 -11 -16 -41 -16 -79 l-2
-61 -53 -42 c-30 -24 -57 -43 -60 -43 -3 0 -6 23 -7 51 -1 73 -40 141 -129
231 -74 75 -74 76 -65 112 20 73 -20 145 -93 165 -118 32 -349 -100 -371 -213
-6 -33 -16 -44 -88 -91 -44 -30 -105 -74 -135 -100 -129 -110 -238 -174 -298
-175 -41 0 -47 19 -41 127 6 99 -5 127 -79 192 -103 92 -151 74 -375 -146
-157 -152 -161 -156 -177 -136 -19 25 -48 40 -86 47 -15 3 -29 6 -31 8 -1 2
17 35 42 73 91 143 110 206 79 265 -49 94 -273 65 -428 -56 l-57 -45 0 31 c0
66 -56 120 -126 120 l-37 0 39 28 c70 51 111 116 124 199 17 101 -31 164 -128
171 -143 10 -468 -90 -747 -230 -371 -187 -604 -405 -681 -638 -28 -83 -25
-211 4 -272 l24 -48 -21 -63 c-62 -186 -23 -326 116 -415 103 -66 216 -92 394
-92 211 0 443 65 704 199 83 42 154 76 158 76 4 0 19 -26 32 -59 29 -72 60
-105 134 -144 135 -72 252 -67 426 18 75 36 210 129 263 180 28 27 47 21 55
-17 10 -46 63 -120 109 -150 40 -26 50 -28 143 -28 l100 0 105 52 c104 52 304
194 404 287 43 40 53 45 75 38 l26 -9 -25 -13 c-44 -23 -124 -90 -152 -127
-38 -50 -37 -89 5 -142 75 -94 193 -143 347 -142 202 1 381 61 563 188 43 30
80 53 81 51 1 -2 8 -23 15 -47 15 -52 95 -137 159 -170 58 -30 166 -43 251
-31 123 17 232 65 421 183 l29 18 24 -38 c37 -58 121 -129 174 -147 58 -20
168 -20 249 -1 141 33 364 147 463 235 51 46 51 46 94 24 46 -24 190 -30 246
-11 25 9 48 14 53 11 4 -3 8 -25 8 -49 0 -79 37 -137 112 -176 86 -44 216 -6
363 105 52 40 254 209 282 237 16 15 29 20 48 15 31 -8 36 -46 5 -46 -17 0
-19 -3 -11 -19 8 -14 3 -41 -19 -107 -44 -130 -39 -187 21 -223 76 -46 154
-39 265 26 44 25 85 46 92 46 6 0 12 4 12 8 0 4 30 28 68 53 37 25 110 75 162
111 68 47 96 61 98 50 2 -8 0 -21 -5 -29 -5 -9 -5 -70 -1 -136 l8 -121 -30
-44 c-50 -73 -142 -131 -191 -121 -29 5 -40 -4 -92 -78 -10 -15 -41 -38 -69
-52 -45 -23 -58 -25 -132 -20 -44 3 -94 5 -111 4 -147 -5 -161 -4 -211 27 -35
22 -52 41 -60 65 -11 32 -12 33 -23 13 -19 -36 -13 -87 12 -111 54 -51 133
-64 224 -37 49 15 52 14 108 -11 68 -32 94 -28 180 22 41 24 72 52 91 81 27
41 34 45 75 48 86 5 170 64 206 142 20 43 29 53 42 47 9 -4 28 -7 43 -6 24 1
29 -4 38 -37 17 -63 66 -127 111 -145 22 -9 50 -14 62 -11 19 4 27 -5 57 -67
28 -59 44 -79 83 -105 90 -60 217 -68 272 -17 l28 26 78 -26 c92 -30 184 -34
232 -10 55 28 119 86 133 121 27 64 -9 118 -41 60 -18 -34 -86 -90 -132 -109
-35 -14 -228 -13 -267 2 -24 9 -31 8 -41 -7 -10 -14 -29 -17 -92 -18 -72 0
-83 3 -137 35 -56 33 -128 109 -140 148 -4 11 -17 17 -36 18 -41 2 -115 65
-145 124 -23 45 -24 53 -13 102 6 29 13 55 14 57 2 2 19 -7 39 -19 53 -33 133
-37 230 -10 115 31 171 48 161 49 -9 1 152 101 162 101 8 0 132 109 205 179
37 36 67 60 67 54 0 -32 -118 -162 -170 -187 -36 -17 -59 -33 -81 -58 -13 -15
-51 -43 -83 -63 -58 -34 -59 -35 -27 -35 35 0 120 50 161 95 14 15 52 40 85
55 99 45 182 144 187 222 1 18 -4 65 -11 104 -16 93 -40 118 -111 117 -55 0
-76 -11 -225 -125 -132 -100 -203 -139 -245 -136 -56 5 -51 33 9 53 66 22 237
125 326 196 39 31 104 92 146 135 64 66 78 87 88 130 10 43 10 57 -3 89 -21
49 -21 49 17 41 38 -8 95 -66 108 -110 13 -44 0 -130 -28 -194 -34 -77 -24
-85 25 -21 67 89 95 268 54 349 -22 45 -57 49 -152 21 -37 -12 -81 -21 -97
-21 -52 0 -102 -20 -160 -66 -82 -63 -214 -150 -240 -158 -13 -4 -23 -11 -23
-15 0 -12 -47 -31 -76 -31 -47 0 -58 86 -23 186 24 71 16 114 -32 169 -81 92
-201 54 -393 -126 -119 -111 -145 -131 -161 -125 -19 7 -19 8 10 118 14 51 28
123 31 159 l7 66 -41 41 c-71 71 -193 82 -302 27 -65 -33 -190 -117 -240 -161
-19 -18 -57 -50 -85 -72 -27 -21 -59 -49 -70 -62 -11 -12 -33 -31 -49 -43
l-29 -21 6 47 c7 47 42 124 74 163 25 30 60 46 100 46 19 0 31 3 26 7 -18 16
-99 33 -147 30 -28 -1 -64 3 -81 10 -38 16 -153 16 -200 1 -94 -31 -170 -96
-239 -202 -41 -65 -104 -100 -189 -106 l-57 -4 6 53 c13 115 -37 201 -149 255
-58 27 -83 34 -133 34 -157 0 -363 -55 -561 -150 l-102 -48 -177 -1 c-97 0
-180 2 -184 4 -4 3 3 33 15 67 l23 63 133 6 c224 10 292 50 293 172 0 86 -30
96 -291 97 -191 0 -185 -2 -158 64 l15 36 43 -23 c67 -35 191 -36 309 -3 148
43 313 130 431 229 l48 40 42 -19 c32 -15 65 -19 142 -19 89 0 107 3 160 28
71 33 143 87 207 153 114 119 145 217 88 274 -34 34 -80 25 -199 -36 -95 -48
-115 -55 -158 -52 -26 2 -48 8 -48 13 0 6 28 19 61 30 34 11 68 25 75 30 8 6
27 17 43 25 58 29 190 165 224 230 34 67 39 98 20 133 -33 63 -79 62 -216 -7
-111 -56 -153 -69 -186 -57 -17 7 -19 16 -17 68 6 157 -121 273 -300 273 -136
0 -353 -59 -537 -146 -64 -31 -153 -90 -290 -192 -217 -163 -283 -206 -330
-217 -29 -6 -23 3 67 94 160 163 267 333 291 463 13 68 -1 112 -52 158 l-32
30 17 35 c9 19 22 35 28 35 7 0 34 -14 61 -31 28 -16 53 -28 56 -24 5 5 -66
86 -92 106 -5 4 -6 15 -2 25 4 11 12 43 16 72 11 66 -8 122 -52 154 -26 18
-28 22 -14 30 23 13 146 35 325 58 84 10 156 21 158 23 2 3 -49 12 -114 21
-253 36 -347 57 -416 94 -29 16 -50 34 -53 49 -9 33 30 92 130 203 86 95 114
140 54 84 -38 -35 -130 -114 -150 -129 -34 -27 -148 -85 -167 -85 -22 0 -65
64 -81 122 -11 36 -31 198 -51 403 -11 122 -20 158 -32 138z m395 -1042 c31
-28 33 -34 33 -95 0 -35 -3 -68 -7 -72 -15 -14 -138 115 -138 144 0 19 38 52
60 52 11 0 34 -13 52 -29z m-517 -142 c19 -17 35 -36 35 -41 0 -5 -31 -49 -68
-97 -38 -47 -90 -118 -116 -157 -57 -86 -38 -81 -358 -91 -215 -6 -228 -5
-228 12 0 17 8 17 128 9 179 -12 230 -9 301 20 81 33 131 74 188 153 51 72 76
144 62 181 -20 52 3 57 56 11z m368 5 c54 -28 137 -96 137 -113 0 -37 -126
-209 -232 -315 -59 -60 -111 -107 -114 -103 -10 10 39 415 57 463 4 11 19 34
34 52 31 37 67 42 118 16z m-459 -20 c12 -32 5 -62 -30 -120 -50 -83 -107
-138 -178 -171 -66 -30 -118 -34 -345 -23 l-104 5 -78 -140 c-43 -77 -79 -146
-79 -152 0 -16 64 -17 257 -2 172 13 178 11 178 -74 -1 -80 -36 -144 -94 -170
-42 -18 -58 -19 -211 -13 -91 3 -182 9 -202 12 l-37 6 -26 -58 c-14 -32 -44
-116 -66 -186 -58 -184 -82 -203 -259 -203 -132 0 -179 16 -217 73 -22 33 -22
34 -4 81 10 26 39 85 66 131 106 186 108 190 90 190 -28 0 -76 30 -85 55 -5
14 -5 37 1 59 13 47 51 66 146 73 l75 6 99 148 c54 82 99 151 99 154 0 21
-213 -23 -309 -64 -38 -16 -95 -46 -126 -66 -74 -47 -103 -52 -138 -25 -41 32
-36 72 18 150 85 124 209 231 315 271 73 28 217 39 512 40 150 1 336 4 413 8
77 4 142 5 144 4 2 -1 -29 -37 -70 -78 -78 -80 -89 -95 -67 -95 17 0 143 81
179 116 32 31 99 73 115 74 7 0 15 -7 18 -16z m171 -304 c8 -80 19 -168 23
-196 7 -40 4 -64 -10 -110 -11 -33 -22 -93 -25 -135 -5 -67 -3 -83 19 -131 31
-68 81 -103 132 -94 51 10 172 87 366 234 196 148 310 212 478 266 124 40 303
67 372 57 63 -10 133 -46 169 -87 38 -43 54 -101 46 -169 -6 -47 -5 -54 16
-69 45 -31 98 -21 230 45 101 52 126 60 147 53 101 -36 -30 -243 -228 -361
-96 -58 -226 -67 -328 -23 l-52 23 -49 -46 c-142 -133 -420 -257 -576 -257
-28 0 -79 9 -113 21 -50 17 -72 32 -117 80 -30 33 -55 66 -55 73 0 36 -24 32
-103 -22 -158 -106 -279 -148 -394 -138 -127 10 -210 72 -269 201 -66 144 -72
353 -16 515 48 139 156 321 259 439 l48 55 7 -40 c4 -21 14 -104 23 -184z
m390 -876 c-16 -13 -70 -51 -120 -84 -88 -59 -139 -78 -171 -66 -19 7 -9 26
15 26 22 0 182 79 241 119 54 37 77 40 35 5z m625 -89 c0 -8 -82 -45 -100 -44
-11 0 60 35 98 48 1 1 2 -1 2 -4z m-599 -306 c41 -14 89 -57 89 -79 0 -10 -13
-50 -30 -90 -16 -40 -30 -74 -30 -76 0 -2 102 -4 226 -4 136 0 233 -4 245 -10
21 -12 27 -77 9 -111 -30 -56 -145 -78 -407 -79 l-173 0 -23 -37 c-88 -142
-149 -296 -150 -379 -3 -207 196 -198 458 22 85 71 208 160 290 209 153 92
369 162 560 180 125 12 236 -43 281 -139 21 -44 23 -60 18 -117 l-6 -66 31
-13 c43 -17 101 -8 177 30 54 26 70 41 108 98 88 132 166 185 281 190 39 2 82
-1 96 -6 25 -10 25 -11 21 -99 -4 -73 -10 -100 -38 -162 -19 -41 -34 -82 -34
-91 0 -27 26 -31 53 -9 36 28 44 24 53 -23 4 -24 9 -38 11 -32 2 6 0 30 -5 52
l-10 41 70 61 c38 33 73 60 78 60 5 0 14 -8 19 -17 6 -10 11 -13 11 -8 0 6 -6
17 -12 24 -11 10 -2 22 42 61 30 27 66 55 80 62 14 7 31 21 38 30 22 29 163
111 216 125 89 24 183 -2 221 -60 13 -21 14 -35 5 -90 -9 -61 -56 -237 -65
-246 -3 -2 -19 8 -37 23 -93 75 -145 114 -168 126 -34 17 -17 1 55 -51 101
-72 145 -119 145 -151 0 -24 4 -28 27 -28 17 0 39 -12 60 -32 39 -38 43 -33 8
8 -14 16 -25 32 -25 35 0 3 18 20 39 37 22 18 75 65 118 104 l78 73 3 -45 c2
-25 2 -100 0 -167 -2 -67 0 -116 5 -108 8 14 14 291 6 314 -5 18 82 86 138
107 47 18 110 12 119 -11 3 -7 -10 -30 -29 -50 -33 -35 -103 -162 -94 -171 2
-2 18 25 36 60 37 72 86 136 105 136 8 0 20 -14 29 -32 13 -28 13 -36 0 -77
-32 -100 -34 -114 -27 -154 3 -23 16 -54 27 -69 11 -15 19 -29 16 -31 -2 -2
-22 -14 -44 -27 -22 -14 -45 -29 -52 -35 -6 -5 -37 -28 -67 -49 -31 -22 -56
-43 -56 -47 0 -5 44 23 98 62 112 82 134 94 183 103 42 7 146 70 256 153 87
67 171 113 204 113 57 0 76 -68 40 -139 -22 -42 -176 -193 -222 -216 -16 -9
-29 -21 -29 -27 0 -6 -3 -8 -6 -5 -9 9 -46 -12 -39 -23 3 -4 -5 -6 -17 -3 -18
4 -20 2 -9 -5 32 -23 -196 -139 -308 -157 -51 -8 -50 9 2 20 17 4 50 15 72 24
161 70 215 95 215 101 0 4 -27 -6 -60 -21 -33 -16 -77 -35 -97 -43 -256 -95
-254 -94 -298 -74 -21 9 -25 18 -25 51 0 24 7 48 17 59 16 18 16 18 0 12 -31
-12 -21 86 24 232 11 33 19 65 19 70 -1 18 -41 -93 -56 -156 -19 -80 -18 -78
-49 -72 -19 3 -25 11 -26 31 -1 17 -3 20 -6 9 -7 -27 -23 -22 -23 7 0 31 -12
31 -49 4 -16 -12 -34 -19 -39 -15 -6 3 -13 -2 -16 -11 -7 -19 -174 -133 -195
-133 -6 0 -11 -4 -11 -10 0 -5 -28 -28 -62 -50 -47 -30 -70 -39 -88 -35 -19 4
-22 3 -10 -5 13 -9 11 -13 -10 -30 -41 -32 -113 -68 -140 -71 -73 -7 -108 1
-140 31 -30 28 -32 34 -27 74 4 24 13 59 21 77 8 19 36 94 62 167 l48 133 80
-78 c101 -99 106 -103 117 -103 5 0 -17 23 -48 52 -113 100 -143 135 -143 163
0 21 -4 26 -16 21 -9 -4 -23 -1 -32 6 -13 11 -14 10 -8 -8 5 -17 -11 -35 -91
-103 -54 -46 -125 -107 -158 -137 -213 -190 -359 -270 -456 -249 -17 4 -53 28
-80 54 l-49 47 0 82 c0 45 -1 82 -3 82 -1 0 -30 -10 -62 -22 -85 -31 -201 -31
-273 1 l-52 24 -48 -45 c-62 -59 -145 -111 -267 -169 -243 -116 -420 -115
-535 3 -23 23 -51 62 -62 86 -10 23 -21 42 -24 42 -3 0 -39 -23 -81 -51 -95
-65 -239 -133 -324 -155 -89 -23 -227 -16 -289 16 -96 48 -160 134 -160 215 0
25 -3 45 -6 45 -3 0 -27 -17 -53 -39 -25 -21 -79 -60 -119 -86 -164 -106 -310
-149 -502 -150 -121 0 -127 1 -195 33 -75 36 -118 71 -141 114 -12 24 -12 32
0 61 24 59 173 166 231 167 11 0 44 -11 73 -25 65 -30 78 -31 92 -5 17 32 -4
90 -66 174 -30 42 -57 76 -59 76 -5 0 -80 -68 -195 -176 -153 -143 -315 -258
-460 -328 -77 -37 -92 -40 -166 -41 -72 0 -85 3 -123 28 -51 34 -98 105 -106
162 -12 74 -16 74 -97 3 -126 -112 -279 -204 -378 -228 -74 -18 -205 -8 -258
19 -92 47 -146 118 -158 206 l-7 44 -71 -40 c-183 -103 -486 -229 -552 -229
-13 0 -33 14 -50 36 -16 20 -41 51 -56 68 -15 17 -28 34 -28 38 0 4 -6 13 -13
20 -7 7 -18 22 -25 33 -6 11 -12 15 -12 9 0 -13 128 -187 142 -192 48 -20
-104 -52 -243 -52 -121 0 -255 26 -323 62 -56 30 -124 95 -148 143 -16 31 -21
58 -20 120 1 93 23 166 77 255 36 59 169 210 186 210 5 0 24 -30 43 -67 43
-84 47 -78 6 9 -16 34 -30 68 -30 73 0 6 37 38 83 71 275 205 692 381 979 413
95 11 132 1 153 -40 48 -92 -25 -233 -153 -296 -47 -23 -72 -28 -155 -31 -54
-3 -125 1 -158 7 l-61 12 -99 -50 c-213 -108 -348 -240 -406 -400 l-9 -24 -22
34 c-35 55 -25 25 15 -42 45 -77 88 -140 80 -116 -8 21 3 21 51 2 53 -23 202
-30 292 -15 123 21 276 75 429 152 l144 73 47 78 c86 144 177 217 307 251 92
24 154 21 187 -9 44 -41 33 -79 -72 -252 -66 -109 -87 -162 -78 -199 16 -63
136 -53 224 19 15 12 87 82 161 155 136 136 208 192 247 192 24 0 87 -40 121
-77 31 -33 37 -62 29 -147 -4 -43 -2 -84 4 -103 14 -38 56 -58 103 -49 45 8
169 84 247 151 36 30 109 85 163 121 54 37 100 72 102 78 2 6 6 25 10 41 9 41
112 140 178 170 36 17 70 25 110 25 51 0 62 -4 88 -29 32 -32 38 -79 17 -125
-10 -24 -6 -30 70 -104 91 -88 132 -159 132 -229 0 -33 -8 -52 -37 -90 -20
-26 -43 -54 -50 -62 -27 -27 -5 -21 53 13 33 20 93 63 134 96 41 34 109 87
150 119 60 47 79 68 94 107 11 27 37 85 58 129 l38 80 -92 6 c-105 6 -131 16
-153 60 -23 44 -16 88 18 113 25 19 46 22 185 26 l157 5 30 48 c87 140 113
173 145 189 40 21 111 23 161 7z m-3670 -470 l52 -11 -101 -34 c-55 -19 -158
-59 -228 -89 -70 -30 -129 -53 -131 -51 -12 12 176 135 262 173 59 25 77 27
146 12z m5740 -312 c-17 -17 -24 -1 -10 25 12 21 14 21 17 4 2 -10 -1 -23 -7
-29z m-5651 -96 l65 -6 -80 -34 c-139 -58 -372 -106 -409 -84 -11 7 79 66 169
109 64 31 75 34 130 28 33 -4 89 -9 125 -13z m2083 -18 c-22 -57 -26 -61 -283
-269 -112 -91 -205 -144 -252 -144 -15 0 -28 3 -28 8 0 4 33 24 74 45 122 63
356 237 455 341 40 41 43 43 34 19z m1607 12 c0 -2 -29 -20 -65 -40 -64 -36
-132 -61 -142 -52 -5 5 22 63 39 85 10 11 168 19 168 7z m2260 -28 c0 -8 -28
-37 -63 -65 -35 -28 -104 -87 -153 -131 -49 -44 -92 -81 -96 -81 -20 0 -2 21
70 80 42 36 95 81 117 101 137 124 125 115 125 96z m680 -134 c0 -13 -163
-163 -176 -163 -7 0 -14 -6 -17 -12 -8 -25 -15 -2 -9 29 5 24 22 42 74 77 37
25 70 46 73 46 4 0 13 7 21 15 16 16 34 20 34 8z m-1540 -67 c0 -38 -12 -46
-66 -46 -72 0 -72 22 -1 42 68 20 67 20 67 4z m-4860 -22 c20 -51 14 -58 -92
-111 -203 -100 -303 -135 -438 -151 -80 -9 -210 -5 -210 8 0 4 32 12 72 19
138 23 358 106 543 205 55 30 103 54 108 55 4 1 12 -11 17 -25z m2680 -3 c0
-10 -114 -110 -157 -138 -13 -9 -26 -13 -29 -10 -14 13 9 44 53 71 27 17 64
43 83 58 36 29 50 34 50 19z m880 -55 c0 -26 -134 -122 -230 -165 -43 -20
-140 -29 -140 -13 0 4 21 16 48 26 99 40 169 76 232 119 69 48 90 55 90 33z
m-2860 -58 c-57 -53 -139 -98 -177 -98 -38 0 -26 15 33 40 31 14 84 44 118 67
82 56 93 53 26 -9z m3405 -89 c-22 -10 -47 -18 -55 -18 -8 0 5 8 30 19 59 24
76 24 25 -1z"/>
<path d="M5790 5333 c-161 -48 -390 -208 -390 -273 0 -103 163 -81 341 46 43
32 48 39 42 62 -11 41 -6 77 16 121 21 40 18 52 -9 44z m-44 -84 c-3 -17 -6
-46 -6 -65 0 -31 -3 -34 -37 -39 -21 -3 -89 -24 -150 -45 -62 -21 -113 -35
-113 -32 0 29 151 146 243 187 68 31 71 31 63 -6z"/>
<path d="M7440 3821 c0 -8 50 -34 56 -29 1 2 -11 11 -27 20 -16 9 -29 14 -29
9z"/>
<path d="M7535 3760 c17 -11 35 -20 40 -20 6 0 -3 9 -20 20 -16 11 -34 20 -40
20 -5 0 4 -9 20 -20z"/>
<path d="M5945 3696 c-116 -46 -231 -121 -297 -195 -57 -62 -47 -116 23 -127
44 -7 142 30 244 92 l70 42 0 64 c1 48 6 72 23 99 36 58 30 61 -63 25z m11
-58 c-3 -13 -6 -41 -6 -64 l0 -41 -57 -13 c-32 -7 -100 -27 -150 -45 -51 -17
-93 -29 -93 -25 0 29 137 136 231 179 78 36 83 37 75 9z"/>
<path d="M636 3640 c7 -27 44 -91 43 -75 0 6 -11 30 -25 55 -14 25 -22 34 -18
20z"/>
<path d="M7301 3645 c-1 -5 15 -28 34 -50 19 -22 35 -35 35 -30 0 13 -69 93
-69 80z"/>
<path d="M7160 3405 c0 -5 5 -17 10 -25 5 -8 10 -10 10 -5 0 6 -5 17 -10 25
-5 8 -10 11 -10 5z"/>
<path d="M7957 3386 c20 -26 27 -28 17 -3 -3 8 -12 18 -20 21 -11 4 -10 0 3
-18z"/>
<path d="M820 3322 c0 -12 39 -60 40 -49 0 5 -9 20 -20 34 -11 14 -20 21 -20
15z"/>
<path d="M7654 3291 c10 -16 96 -73 96 -64 0 4 -17 19 -37 33 -61 41 -66 44
-59 31z"/>
<path d="M7340 3201 c0 -12 248 -96 257 -87 2 2 -42 18 -99 36 -57 18 -107 36
-113 40 -18 13 -45 19 -45 11z"/>
<path d="M8778 7143 c7 -3 16 -2 19 1 4 3 -2 6 -13 5 -11 0 -14 -3 -6 -6z"/>
<path d="M8755 7066 c-70 -30 -106 -108 -86 -182 24 -85 2 -146 -58 -159 -108
-23 -105 -166 2 -152 66 9 175 100 246 206 34 51 36 59 36 135 0 70 -3 85 -24
113 -13 18 -38 37 -54 43 -17 5 -30 10 -31 10 -1 -1 -15 -7 -31 -14z"/>
<path d="M8400 6973 c-126 -65 -97 -229 46 -256 51 -10 116 28 133 78 41 119
-73 232 -179 178z"/>
<path d="M8972 6920 c0 -19 2 -27 5 -17 2 9 2 25 0 35 -3 9 -5 1 -5 -18z"/>
<path d="M8231 6884 c0 -11 3 -14 6 -6 3 7 2 16 -1 19 -3 4 -6 -2 -5 -13z"/>
<path d="M5928 6813 c7 -3 16 -2 19 1 4 3 -2 6 -13 5 -11 0 -14 -3 -6 -6z"/>
<path d="M8638 6503 c7 -3 16 -2 19 1 4 3 -2 6 -13 5 -11 0 -14 -3 -6 -6z"/>
<path d="M1026 6225 c-9 -71 -34 -132 -67 -161 -29 -26 -104 -51 -182 -60 -31
-3 -60 -10 -62 -15 -5 -7 8 -11 103 -24 107 -16 166 -54 196 -126 17 -40 35
-142 38 -208 1 -23 5 -44 10 -47 4 -3 8 1 8 8 0 53 23 201 36 238 34 92 115
146 253 169 98 16 95 28 -11 36 -134 9 -195 29 -240 76 -21 22 -42 58 -49 81
-26 98 -25 97 -33 33z"/>
<path d="M7030 5921 c0 -6 4 -13 10 -16 6 -3 7 1 4 9 -7 18 -14 21 -14 7z"/>
<path d="M9073 5655 c0 -22 2 -30 4 -17 2 12 2 30 0 40 -3 9 -5 -1 -4 -23z"/>
<path d="M1596 5554 c-54 -59 -38 -164 36 -235 41 -38 67 -51 105 -51 68 0 82
52 32 120 -23 32 -33 59 -38 104 -9 69 -25 88 -78 88 -22 0 -40 -8 -57 -26z"/>
<path d="M1843 5568 c-13 -6 -32 -31 -44 -55 -19 -39 -20 -50 -10 -83 13 -44
27 -58 68 -66 26 -5 37 0 68 28 31 29 38 42 42 84 5 44 2 52 -22 77 -29 29
-63 34 -102 15z"/>
<path d="M193 5460 c0 -30 2 -43 4 -27 2 15 2 39 0 55 -2 15 -4 2 -4 -28z"/>
<path d="M566 5414 c-39 -39 3 -90 50 -59 26 17 31 44 12 63 -17 17 -44 15
-62 -4z m52 -26 c-4 -30 -48 -39 -48 -10 0 24 8 32 32 32 14 0 19 -6 16 -22z"/>
<path d="M193 5175 c0 -33 2 -45 4 -27 2 18 2 45 0 60 -2 15 -4 0 -4 -33z"/>
<path d="M9073 4960 c0 -25 2 -35 4 -22 2 12 2 32 0 45 -2 12 -4 2 -4 -23z"/>
<path d="M7965 4830 c-3 -5 1 -10 9 -10 9 0 16 5 16 10 0 6 -4 10 -9 10 -6 0
-13 -4 -16 -10z"/>
<path d="M1760 4775 c-16 -19 -3 -55 20 -55 26 0 45 36 29 56 -15 18 -33 18
-49 -1z"/>
<path d="M834 4685 c0 -55 1 -76 3 -47 2 29 2 74 0 100 -2 26 -3 2 -3 -53z"/>
<path d="M820 4565 c-9 -11 -9 -19 -2 -28 7 -8 13 -71 15 -153 l3 -139 2 143
c1 78 6 142 11 142 18 0 20 30 2 40 -14 7 -22 6 -31 -5z"/>
<path d="M7861 2704 c0 -11 3 -14 6 -6 3 7 2 16 -1 19 -3 4 -6 -2 -5 -13z"/>
<path d="M3655 2441 c-12 -20 -55 -142 -55 -156 0 -22 14 -18 25 8 7 15 20 23
42 25 27 3 35 -1 45 -22 6 -14 17 -26 25 -26 11 0 10 7 -3 38 -8 20 -25 61
-36 90 -19 50 -31 62 -43 43z m25 -60 c0 -5 3 -16 6 -25 4 -12 0 -16 -15 -16
-22 0 -25 8 -15 34 7 17 24 22 24 7z"/>
<path d="M3849 2421 c-38 -38 -40 -91 -4 -126 32 -33 86 -37 115 -9 13 12 8
14 -34 12 -42 -3 -51 0 -69 24 -17 23 -19 33 -11 55 12 36 49 54 81 42 33 -12
52 0 28 18 -31 22 -74 16 -106 -16z"/>
<path d="M4095 2438 c-33 -19 -44 -41 -45 -84 0 -62 59 -105 116 -84 38 15 29
31 -13 24 -67 -10 -105 50 -67 105 14 20 23 23 60 18 31 -3 44 -1 44 8 0 23
-62 32 -95 13z"/>
<path d="M4287 2443 c-4 -3 -7 -44 -7 -89 l0 -83 44 -6 c25 -4 49 -4 55 0 22
13 10 24 -31 27 -43 3 -45 5 -39 48 0 6 17 10 36 10 19 0 35 5 35 10 0 6 -16
10 -35 10 -32 0 -35 2 -35 30 0 28 2 30 40 30 22 0 40 5 40 10 0 11 -93 14
-103 3z"/>
<path d="M4498 2439 c-11 -6 -18 -22 -18 -40 0 -26 6 -33 46 -50 31 -14 44
-26 42 -37 -4 -20 -45 -29 -61 -13 -14 14 -37 14 -37 1 0 -17 62 -39 84 -31
52 20 51 84 -3 96 -16 3 -35 13 -42 22 -20 23 14 45 48 32 33 -12 44 -2 19 17
-23 16 -54 18 -78 3z"/>
<path d="M4695 2430 c-27 -30 -13 -64 36 -83 30 -12 40 -21 37 -34 -4 -19 -37
-23 -70 -8 -13 5 -18 3 -18 -8 0 -32 78 -37 105 -7 25 28 7 68 -35 76 -16 4
-35 13 -42 21 -19 23 15 45 49 32 33 -12 44 -2 19 17 -28 20 -60 17 -81 -6z"/>
<path d="M4909 2421 c-71 -71 -2 -184 89 -145 33 14 52 46 52 90 0 34 -51 84
-85 84 -16 0 -38 -12 -56 -29z m89 -7 c16 -11 22 -25 22 -53 0 -70 -62 -94
-103 -40 -24 33 -13 78 24 96 30 16 30 16 57 -3z"/>
<path d="M5147 2444 c-4 -4 -7 -45 -7 -91 0 -63 3 -84 13 -81 8 3 13 31 15 83
3 73 -5 105 -21 89z"/>
<path d="M5270 2360 c0 -49 4 -90 9 -90 6 0 11 15 13 33 3 27 7 32 31 33 29 1
43 -10 48 -40 2 -11 10 -21 17 -24 9 -3 11 3 6 22 -8 34 -8 66 1 93 11 34 -25
63 -80 63 l-45 0 0 -90z m75 60 c20 -7 26 -16 23 -33 -2 -18 -10 -23 -40 -25
-36 -3 -38 -2 -38 27 0 16 6 32 13 34 6 3 13 6 14 6 1 1 14 -4 28 -9z"/>
<path d="M5502 2358 l3 -93 48 0 c58 0 63 19 7 23 -38 3 -41 5 -38 30 3 23 8
27 41 30 50 4 47 22 -4 22 -38 0 -40 1 -37 28 3 24 7 27 46 30 58 4 43 22 -19
22 l-50 0 3 -92z"/>
<path d="M5710 2430 c-11 -11 -20 -24 -20 -30 0 -16 38 -49 64 -56 31 -7 40
-29 20 -45 -12 -10 -22 -10 -47 -1 -17 6 -33 9 -36 7 -11 -11 28 -36 57 -37
73 -2 84 63 17 98 -54 28 -53 50 3 47 45 -2 55 10 23 27 -30 16 -59 12 -81
-10z"/>
<path d="M1705 2384 c-46 -50 -23 -125 45 -145 52 -16 86 -1 106 46 13 32 13
39 -1 69 -29 60 -108 76 -150 30z m112 -6 c35 -17 44 -79 16 -110 -20 -23 -75
-24 -108 -2 -19 12 -25 25 -25 53 0 41 6 53 35 69 21 12 44 9 82 -10z"/>
<path d="M6340 2230 c0 -143 -55 -206 -214 -246 -36 -9 -66 -20 -66 -24 0 -9
61 -20 115 -20 60 0 117 -19 148 -48 30 -28 57 -105 57 -159 0 -55 17 -29 35
53 12 54 25 85 47 110 34 39 117 84 191 104 88 24 70 36 -63 43 -42 2 -89 11
-106 20 -46 24 -90 89 -114 168 -11 38 -23 69 -25 69 -3 0 -5 -32 -5 -70z"/>
<path d="M3344 2130 c0 -58 1 -81 3 -52 2 28 2 76 0 105 -2 28 -3 5 -3 -53z"/>
<path d="M7505 2140 c-3 -5 -2 -10 4 -10 5 0 13 5 16 10 3 6 2 10 -4 10 -5 0
-13 -4 -16 -10z"/>
<path d="M3336 1971 c-4 -7 -5 -15 -2 -18 9 -9 19 4 14 18 -4 11 -6 11 -12 0z"/>
<path d="M3344 1795 c0 -55 1 -76 3 -47 2 29 2 74 0 100 -2 26 -3 2 -3 -53z"/>
<path d="M2660 1218 c0 -34 -34 -158 -53 -194 -29 -56 -121 -130 -189 -153
-77 -25 -215 -50 -325 -58 -45 -3 -87 -10 -95 -14 -23 -16 12 -29 77 -29 83 0
283 -19 325 -31 63 -17 115 -77 145 -168 15 -46 17 -76 11 -210 -3 -86 -9
-183 -12 -216 -10 -90 3 -63 16 35 23 170 89 374 151 466 65 96 183 150 369
169 152 15 160 29 23 38 -145 10 -277 45 -327 86 -40 35 -96 190 -96 269 0 18
-4 32 -10 32 -5 0 -10 -10 -10 -22z"/>
<path d="M4608 399 c-35 -20 -15 -69 28 -69 32 0 46 22 34 54 -10 27 -32 33
-62 15z"/>
</g>
</svg>
